<svg xmlns="http://www.w3.org/2000/svg" viewBox="0 0 896.1 113.809">
  <path fill="currentColor" fill-rule="evenodd" stroke="currentColor" stroke-linecap="round" stroke-width=".05mm" d="m0 74.208 3.1-6.2a641.574 641.574 0 0 1 3.394-7.968A562.135 562.135 0 0 1 7.6 57.508q2.2-5 4.1-10 2.6-6.8 5-13.8 2.4-7 4.9-14a43.361 43.361 0 0 0 .922-2.419 47.237 47.237 0 0 0 .028-.081q.45-1.3 1.05-2.5a11.517 11.517 0 0 1 .721-1.292q.881-1.348 1.884-1.819a2.692 2.692 0 0 1 .545-.189q1.599-.365 3.657 1.523a12.69 12.69 0 0 1 .393.377 25.962 25.962 0 0 1 3.374 4.192 31.943 31.943 0 0 1 1.526 2.608q2.2 4.1 4.2 8.3 2 4.2 4.2 8.4a32.589 32.589 0 0 0 1.421 2.558 29.285 29.285 0 0 0 .279.442q.781 1.216 2.543 1.753a7.956 7.956 0 0 0 .557.147 5.401 5.401 0 0 1 1.145.402q.721.357 1.167.911a3.045 3.045 0 0 1 .438.737q.574 1.37-.296 3.091a7.267 7.267 0 0 1-.254.459q-1.1 1.6-.95 3.15.15 1.55.45 3.05 1 3.9 2.05 7.65 1.05 3.75 1.85 7.55.7 2.6.85 5.3a5.952 5.952 0 0 1 .009.331q0 2.362-1.884 4.647a12.164 12.164 0 0 1-.275.322 4.097 4.097 0 0 1-3.404-2.239q-.423-.762-.688-1.781a11.683 11.683 0 0 1-.208-.98q-.7-4.1-1.7-8.2t-2.1-8.2a32.526 32.526 0 0 1-.781-3.246 30.036 30.036 0 0 1-.019-.104 11.981 11.981 0 0 0-.978-2.999 13.473 13.473 0 0 0-.122-.251 71.554 71.554 0 0 0-10.519 2.372 82.486 82.486 0 0 0-3.581 1.178 194.536 194.536 0 0 1-10.305 3.341 168.304 168.304 0 0 1-3.595 1.009 40.79 40.79 0 0 1-1.659 4.059 48.601 48.601 0 0 1-.941 1.891 35.591 35.591 0 0 0-1.938 4.359 30.962 30.962 0 0 0-.562 1.691q-.777 2.487-1.675 3.645a3.548 3.548 0 0 1-.525.555q-1.195.996-3.777.604a11.731 11.731 0 0 1-.023-.004 18.196 18.196 0 0 1-.78-.172q-.917-.226-1.42-.478a9.684 9.684 0 0 1-.46-.247q-.41-.234-.937-.573a36.638 36.638 0 0 1-.503-.33Zm17.5-21.9a569.86 569.86 0 0 0 2.405-.888q1.066-.396 2.24-.837a1056.099 1056.099 0 0 0 2.455-.925q4.1-1.55 8.25-3.1a1740.084 1740.084 0 0 1 2.951-1.099q1.162-.432 2.212-.819A914.535 914.535 0 0 1 40 43.908a105.65 105.65 0 0 0-4.385-10.703 115.128 115.128 0 0 0-.165-.347q-2.65-5.55-6.45-10.15-1.1 1.994-2.389 4.555a218.895 218.895 0 0 0-1.211 2.445q-2 4.1-3.8 8.5-1.8 4.4-2.95 8.15a38.51 38.51 0 0 0-.581 2.09q-.569 2.313-.569 3.86Zm76.42 29.019a9.869 9.869 0 0 0 1.18-1.019q2.7-2.7 5.25-5.6 2.55-2.9 3.95-6.3 3-7.2 3.25-14.75.061-1.827-.052-3.658a41.881 41.881 0 0 0-2.398-11.492q-1.3-3.7-3.9-5.8a7.943 7.943 0 0 0-5.124-1.837 9.256 9.256 0 0 0-.826.037 8.442 8.442 0 0 0-2.619.702q-1.153.502-2.364 1.352A21.929 21.929 0 0 0 88 34.808a10.952 10.952 0 0 0-.593.561 13.3 13.3 0 0 0-.957 1.089q-.75.95-1.45 1.95-1.2 1.9-2.45 3.85-1.25 1.95-2.65 4.25a72.755 72.755 0 0 1-.082-.289q-.339-1.206-.518-2.011l-.4-1.8q-.5-4.6-.85-9.15-.35-4.55-1.15-9.05-.9-4.9-1.85-9.75a29.244 29.244 0 0 1-.547-5.634 30.372 30.372 0 0 1 .297-4.216 1.397 1.397 0 0 0 .044-.164q.023-.111.023-.213a.876.876 0 0 0-.017-.173q-.027-.132-.039-.251a1.906 1.906 0 0 1-.011-.199q-.3-1.5-1.65-2.6a6.265 6.265 0 0 0-.03-.024Q71.784-.091 70.4.008a4.692 4.692 0 0 0-.566.085Q67.127.678 67.4 4.408q.2 2.4.35 4.75.15 2.35.45 4.65 1 7.3 2.05 14.7 1.05 7.4 1.85 14.8.6 5.4.9 10.8.3 5.4.8 10.8.1 1.3.45 2.55a8.246 8.246 0 0 0 .045.156 7.292 7.292 0 0 0 1.005 2.094 2.809 2.809 0 0 0 .379.426q.483.448 1.271.824a5.436 5.436 0 0 0 .381.166q.905.35 1.569.184.8-.2 1.5-1.15t1-1.85q.7-2.3 1.1-4.75.4-2.45 1-4.85 1.1-4.7 2.95-9t4.65-8.2a29.241 29.241 0 0 1 .845-1.156 36.848 36.848 0 0 1 1.255-1.544 3.285 3.285 0 0 1 .336-.34q1.108-.965 2.664-.36.756.275 1.394 1.047a6.091 6.091 0 0 1 .556.803q.85 1.45 1.15 2.85 1.5 5.7 1.05 12.35-.45 6.65-3.3 12.7a24.402 24.402 0 0 1-2.32 3.929 26.565 26.565 0 0 1-6.43 6.221q-.6.4-.95 1t-.85 1.1a12.693 12.693 0 0 0 1.147.938q.728.522 1.429.839a5.24 5.24 0 0 0 1.774.473 3.593 3.593 0 0 0 .262.01q1.371 0 2.808-1.041Zm30.78-50.119v12.2q0 4.3.3 8.65a184.049 184.049 0 0 1 .335 6.705 212.416 212.416 0 0 1 .065 2.445q2.419-2.063 3.851-4a13.587 13.587 0 0 0 .999-1.55q1.45-2.65 2.85-5.45 2.22-3.828 3.62-6.425a98.915 98.915 0 0 0 .78-1.475 7.126 7.126 0 0 1 .924-1.393 4.047 4.047 0 0 1 3.176-1.507 5.102 5.102 0 0 1 3.472 1.371q.681.604 1.289 1.473a10.687 10.687 0 0 1 .039.056q1.6 3.1 2.7 6.5 1.8 6.4 3.55 13 1.75 6.6 3.65 13.7-2.1 1.4-3.95.05a8.087 8.087 0 0 1-1.352-1.272q-.583-.679-1.139-1.561a20.082 20.082 0 0 1-.959-1.717 47.661 47.661 0 0 1-1.629-3.654 63.171 63.171 0 0 1-1.321-3.646q-1.35-4.1-2.45-8.25a1517.854 1517.854 0 0 1-.783-2.965q-.617-2.347-1.117-4.285a355.067 355.067 0 0 0-3.136 5.398q-1.207 2.123-2.248 4.036a172.858 172.858 0 0 0-1.916 3.616q-2.8 5.45-6 8.55-1.804 1.64-3.204 1.935a2.885 2.885 0 0 1-.596.065 3.345 3.345 0 0 1-2.257-.883q-.463-.404-.876-.994a7.318 7.318 0 0 1-.117-.173 14.049 14.049 0 0 1-1.525-3.126 17.166 17.166 0 0 1-.475-1.624q-.65-2.7-.75-4.7-.4-7.8-.55-15.7-.15-7.9-.35-15.8a27.87 27.87 0 0 0-.236-3.555 33.045 33.045 0 0 0-.264-1.695 31.018 31.018 0 0 1-.311-2.092q-.144-1.284-.144-2.412a17.029 17.029 0 0 1 .005-.396q.05-2.15 1.65-2.95a4.412 4.412 0 0 1 .533-.243q.493-.183.925-.183a1.776 1.776 0 0 1 1.042.326 6.224 6.224 0 0 1 1.589 1.631 7.155 7.155 0 0 1 .111.169q1.186 2.007 1.664 3.806a10.68 10.68 0 0 1 .086.344 17.651 17.651 0 0 1 .406 2.823 21.159 21.159 0 0 1 .044 1.377v5.45Zm43.1 22 .7-7.4q.184-1.747 1.171-2.733a3.538 3.538 0 0 1 .179-.167 3.405 3.405 0 0 1 1.104-.656q.502-.177 1.056-.177a3.708 3.708 0 0 1 .49.033 3.014 3.014 0 0 1 1.697.698 4.393 4.393 0 0 1 .603.602q1 1.2 1.1 3 0 .678-.188 1.497a9.42 9.42 0 0 1-.012.053q-.2.85-.2 1.75v12.2q0 6.1.1 12.2 0 1.8-.55 2.9-.429.859-.828 1.23a1.344 1.344 0 0 1-.222.17 1.92 1.92 0 0 1-.354.164q-.839.282-1.575-.489a3.404 3.404 0 0 1-.271-.325 8.469 8.469 0 0 1-.837-1.414q-.33-.695-.594-1.521a15.63 15.63 0 0 1-.169-.565 45.308 45.308 0 0 1-.336-1.27q-.326-1.317-.464-2.28-.5-4.4-.85-8.75t-.75-8.75Zm10.045-15.423a1.906 1.906 0 0 0 .655.123 1.569 1.569 0 0 0 .907-.277 2.015 2.015 0 0 0 .443-.423 2.495 2.495 0 0 0 .468-1.009 3.6 3.6 0 0 0 .082-.791 4.529 4.529 0 0 0-.352-1.804 4.434 4.434 0 0 0-1.248-1.646 41.542 41.542 0 0 1-1.073-.939q-.566-.512-1.192-1.11A90.744 90.744 0 0 1 175 28.408q-.554-.705-1.134-1.055a2.231 2.231 0 0 0-1.166-.345 2.259 2.259 0 0 0-.485.054q-.904.198-1.878 1.128a9.753 9.753 0 0 0-.837.918 18.044 18.044 0 0 0 .889 1.579 14.666 14.666 0 0 0 2.561 3.071q2.05 1.85 4.05 3.55a4.159 4.159 0 0 0 .324.221q.266.163.521.256Zm48.521 44.478a2.539 2.539 0 0 0 .334-.055q1.4-.2 2.05-1.5.554-1.108.49-2.799a10.538 10.538 0 0 0-.04-.601q-.6-6.3-1.75-12.35t-3.25-12.05a64.455 64.455 0 0 0-.038-.087 70.036 70.036 0 0 0-1.262-2.763q-.7-1.45-1.8-2.65a10.83 10.83 0 0 0-1.452-1.612 6.925 6.925 0 0 0-4.748-1.888 6.59 6.59 0 0 0-.415.013q-1.355.086-2.71.73a10.698 10.698 0 0 0-1.875 1.157q-1.5 1.2-2.7 2.7-1.2 1.5-2.3 3.2-1.3 2.1-2.25 4.3-.95 2.2-2.05 4.4a25.46 25.46 0 0 1-.154.304q-.275.531-.696 1.296-.344.625-.863 1.368a25.831 25.831 0 0 1-.687.932q-.6-2.85-.919-4.687a49.68 49.68 0 0 1-.181-1.113q-.3-2.7-.5-5.5t-.7-5.5a4.492 4.492 0 0 0-.001-.006 3.518 3.518 0 0 0-1.349-2.394q-1.15-.9-2.55-.9h-.4a1.684 1.684 0 0 0-.079.002q-.113.005-.212.027a.881.881 0 0 0-.209.071 3.744 3.744 0 0 0-.57.226 2.594 2.594 0 0 0-1.23 1.224q-.417.875-.417 1.993a6.414 6.414 0 0 0 .017.457q.6 4.6 1.1 9.1.5 4.5 1.2 9.1a54.815 54.815 0 0 0 .106.757 61.184 61.184 0 0 0 .394 2.343q.3 1.6.7 3.2a9.837 9.837 0 0 0 .203.586 8.357 8.357 0 0 0 1.247 2.214 3.388 3.388 0 0 0 .152.179q.592.651 1.504.966a5.372 5.372 0 0 0 1.194.255 6.085 6.085 0 0 0 .089.011q.463.051.892.025a4.03 4.03 0 0 0 1.819-.536q1.2-.7 1.9-2 1.2-1.8 2.2-3.75 1-1.95 1.9-3.95 1.3-2.7 2.3-5.55 1-2.85 2.4-5.45a24.825 24.825 0 0 1 .37-.634q.553-.914 1.124-1.668a13.409 13.409 0 0 1 1.206-1.398 4.316 4.316 0 0 1 .309-.281q1.245-1.025 2.491-.269a1.928 1.928 0 0 1 .34.268q.908.882 1.683 3.471a30.972 30.972 0 0 1 .477 1.811q1.2 4.6 2.35 9.2 1.15 4.6 2.25 9.3a71.725 71.725 0 0 0 .197.952 83.953 83.953 0 0 0 .503 2.198q.2.825.488 1.513a6.948 6.948 0 0 0 .662 1.237 2.546 2.546 0 0 0 .192.249q.609.692 1.524.606Zm53.984-4.205a1.999 1.999 0 0 0 .267-.22q.742-.724 1.083-2.43-1.3-1.3-2.6-2.3a12.905 12.905 0 0 1-.512-.414 11.139 11.139 0 0 1-1.688-1.786 16.563 16.563 0 0 1-.528-.657 14.075 14.075 0 0 1-2.472-4.993q-.8-3.05-1.1-6.25-.2-3.8-.15-6.4.034-1.765-.278-2.932a4.484 4.484 0 0 0-.372-.968 1.768 1.768 0 0 0-.248-.351q-.848-.934-3.152-.849-2.681.082-3.184 3.662a13.293 13.293 0 0 0-.116 1.838 22.574 22.574 0 0 1-.248 2.951 17.692 17.692 0 0 1-1.852 5.699q-2 3.75-5.2 6.7t-7 5.45a5.996 5.996 0 0 1-.364.219q-1.206.668-2.241.444a2.689 2.689 0 0 1-.945-.413 3.176 3.176 0 0 1-.891-.907q-.659-1.013-.659-2.643 0-.8.2-1.75a5.063 5.063 0 0 1 .136-.514 4.117 4.117 0 0 1 .564-1.136q2.2-2.8 4.45-5.7 2.25-2.9 4.65-5.6 2.7-3.1 5.8-6.05a80.556 80.556 0 0 0 .193-.184 73.856 73.856 0 0 0 5.507-5.866 16.591 16.591 0 0 0 .247-.32q1.741-2.325 1.741-4.113a3.309 3.309 0 0 0-.188-1.117 3.119 3.119 0 0 0-.38-.739q-.814-1.169-2.779-1.797a12.822 12.822 0 0 0-1.741-.414q-3.9-.6-7.9-.8-4-.2-7.9-.3-1.006-.043-2.06.018a24.157 24.157 0 0 0-2.79.332q-2.55.45-4.15 1.45a4.232 4.232 0 0 0-.099.064q-1.28.85-1.097 2.119a2.684 2.684 0 0 0 .096.417 7.071 7.071 0 0 0 .209.808q.19.582.464 1.012a2.502 2.502 0 0 0 1.477 1.13 8.492 8.492 0 0 0 .287.073q1.013.239 2.117.239a10.941 10.941 0 0 0 1.146-.062q2.269-.137 3.876-.298a43.478 43.478 0 0 0 1.324-.152q1.9-.25 3.25-.3 1.35-.05 2.9.15 1.55.2 4.15 1-2.7 2.8-5.15 5.3t-4.95 5q-2.9 3.1-5.5 6.5t-4.3 7.5q-1.3 3.2-.6 6.45.7 3.25 3.2 5.25a21.745 21.745 0 0 0 1.013.791q1.104.808 2.17 1.356a10.871 10.871 0 0 0 2.367.903q2.65.65 6.45-1.75 2.9-1.8 4.5-2.95a52.507 52.507 0 0 0 .441-.32q.648-.476 1.217-.926a30.634 30.634 0 0 0 1.092-.904q1.15-1 2.45-2.35 1.3-1.35 3.4-3.55a15410.051 15410.051 0 0 0 1.129 1.783q1.177 1.858 2.071 3.267a18.443 18.443 0 0 0 .163.253q1.231 1.872 2.637 2.997.961.769 2.373 1.251a12.913 12.913 0 0 0 1.727.449 9.298 9.298 0 0 0 .037.006q1.872.288 2.813-.356Zm47.816 4.205a2.539 2.539 0 0 0 .334-.055q1.4-.2 2.05-1.5.554-1.108.49-2.799a10.538 10.538 0 0 0-.04-.601q-.6-6.3-1.75-12.35T326 52.908a64.455 64.455 0 0 0-.038-.087 70.036 70.036 0 0 0-1.262-2.763q-.7-1.45-1.8-2.65a10.83 10.83 0 0 0-1.452-1.612 6.925 6.925 0 0 0-4.748-1.888 6.59 6.59 0 0 0-.415.013q-1.355.086-2.71.73a10.698 10.698 0 0 0-1.875 1.157q-1.5 1.2-2.7 2.7-1.2 1.5-2.3 3.2-1.3 2.1-2.25 4.3-.95 2.2-2.05 4.4a25.46 25.46 0 0 1-.154.304q-.275.531-.696 1.296-.344.625-.863 1.368a25.831 25.831 0 0 1-.687.932q-.6-2.85-.919-4.687a49.68 49.68 0 0 1-.181-1.113q-.3-2.7-.5-5.5t-.7-5.5a4.492 4.492 0 0 0-.001-.006 3.518 3.518 0 0 0-1.349-2.394q-1.15-.9-2.55-.9h-.4a1.684 1.684 0 0 0-.079.002q-.113.005-.212.027a.881.881 0 0 0-.209.071 3.744 3.744 0 0 0-.57.226 2.594 2.594 0 0 0-1.23 1.224q-.417.875-.417 1.993a6.414 6.414 0 0 0 .017.457q.6 4.6 1.1 9.1.5 4.5 1.2 9.1a54.815 54.815 0 0 0 .106.757 61.184 61.184 0 0 0 .394 2.343q.3 1.6.7 3.2a9.837 9.837 0 0 0 .203.586 8.357 8.357 0 0 0 1.247 2.214 3.388 3.388 0 0 0 .152.179q.592.651 1.504.966a5.372 5.372 0 0 0 1.194.255 6.085 6.085 0 0 0 .089.011q.463.051.892.025a4.03 4.03 0 0 0 1.819-.536q1.2-.7 1.9-2 1.2-1.8 2.2-3.75 1-1.95 1.9-3.95 1.3-2.7 2.3-5.55 1-2.85 2.4-5.45a24.825 24.825 0 0 1 .37-.634q.553-.914 1.124-1.668a13.409 13.409 0 0 1 1.206-1.398 4.316 4.316 0 0 1 .309-.281q1.245-1.025 2.491-.269a1.928 1.928 0 0 1 .34.268q.908.882 1.683 3.471a30.972 30.972 0 0 1 .477 1.811q1.2 4.6 2.35 9.2 1.15 4.6 2.25 9.3a71.725 71.725 0 0 0 .197.952 83.953 83.953 0 0 0 .503 2.198q.2.825.488 1.513a6.948 6.948 0 0 0 .662 1.237 2.546 2.546 0 0 0 .192.249q.609.692 1.524.606Zm44.341-5.374a2.607 2.607 0 0 0 1.093.219 2.158 2.158 0 0 0 .176-.007q.519-.043 1.206-.328a8.671 8.671 0 0 0 .668-.315q.801-.416 1.089-1.14a2.444 2.444 0 0 0 .161-.91 5.329 5.329 0 0 0-.034-.597q-.142-1.254-.866-2.703-.9-1.8-.8-3.7.4-5.8-.2-11.6-.6-5.8-.3-11.6.5-9.1 1.15-17.2a74.852 74.852 0 0 0 .241-5.989 72.5 72.5 0 0 0-.691-10.011q-.291-1.598-.608-2.537a5.722 5.722 0 0 0-.242-.613q-.345-.727-1.422-.897a4.677 4.677 0 0 0-.728-.053q-.803 0-1.391.201a2.352 2.352 0 0 0-.859.499 2.046 2.046 0 0 0-.388.525q-.31.571-.526 1.544a14.363 14.363 0 0 0-.186 1.031 32.417 32.417 0 0 0-.006.043q-.347 2.402-.694 7.307a204.171 204.171 0 0 1-.194 2.51q-.367 4.409-1.056 10.84a4.163 4.163 0 0 1-.056 0q-.355-.005-1.353-.066a150.659 150.659 0 0 1-.541-.034 168.006 168.006 0 0 0-.429-.027q-1.29-.08-2.321-.123-1.125-.047-.844-.049a4.268 4.268 0 0 1 .044-.001q-6.5 0-11.9 3.7t-7.6 9.9q-.7 2.3-1.05 4.8-.35 2.5-.75 5a21.24 21.24 0 0 0-.209 2.948 19.901 19.901 0 0 0 1.159 6.702q1.65 4.65 5.15 8.45a10.852 10.852 0 0 0 1.419 1.35 7.767 7.767 0 0 0 3.781 1.65q2.9.4 6-1.2a15.656 15.656 0 0 0 .68-.374 13.349 13.349 0 0 0 3.77-3.226q1.75-2.2 3.05-4.7.8-1.6 1.65-3.55a35.056 35.056 0 0 1 .163-.368q.494-1.098.935-1.864a9.69 9.69 0 0 1 .452-.718q.7-1 1 .1a257.139 257.139 0 0 1-.001.765q-.007 2.286-.055 3.97a77.728 77.728 0 0 1-.044 1.215q-.1 2.25.3 4.35a14.463 14.463 0 0 0 .038.195q.421 2.056 1.662 5.205a3.63 3.63 0 0 0 .285.559q.405.641 1.022.922Zm-16.037-8.596a10.474 10.474 0 0 0 .18-.235q1.107-1.488 2.184-3.675a39.83 39.83 0 0 0 .666-1.425q1.4-3.15 2.8-6.95 1.4-3.8 2.8-7.5a28.711 28.711 0 0 0 .676-2.335q.65-2.691.475-4.708a8.947 8.947 0 0 0-.001-.007q-.25-2.85-2.55-3.85-2.271-.987-7.174.463a33.283 33.283 0 0 0-.126.037q-3.9 1.2-6.35 4.9-2.45 3.7-2.65 8.3a147.029 147.029 0 0 0-.078 2.05q-.033 1.048-.057 2.212a252.152 252.152 0 0 0-.015.788q-.05 2.85.15 4.55.3 1.9.6 4.05a7.754 7.754 0 0 0 .599 2.129 6.612 6.612 0 0 0 .951 1.521 3.699 3.699 0 0 0 1.524 1.064q1.109.436 2.726.436 1.313-.093 2.67-1.815Zm68.18 9.765a1.999 1.999 0 0 0 .267-.22q.742-.724 1.083-2.43-1.3-1.3-2.6-2.3a12.905 12.905 0 0 1-.512-.414 11.139 11.139 0 0 1-1.688-1.786 16.563 16.563 0 0 1-.528-.657 14.075 14.075 0 0 1-2.472-4.993q-.8-3.05-1.1-6.25-.2-3.8-.15-6.4.034-1.765-.278-2.932a4.484 4.484 0 0 0-.372-.968 1.768 1.768 0 0 0-.248-.351q-.848-.934-3.152-.849-2.681.082-3.184 3.662a13.293 13.293 0 0 0-.116 1.838 22.574 22.574 0 0 1-.248 2.951 17.692 17.692 0 0 1-1.852 5.699q-2 3.75-5.2 6.7t-7 5.45a5.996 5.996 0 0 1-.364.219q-1.206.668-2.241.444a2.689 2.689 0 0 1-.945-.413 3.176 3.176 0 0 1-.891-.907q-.659-1.013-.659-2.643 0-.8.2-1.75a5.063 5.063 0 0 1 .136-.514 4.117 4.117 0 0 1 .564-1.136q2.2-2.8 4.45-5.7 2.25-2.9 4.65-5.6 2.7-3.1 5.8-6.05a80.556 80.556 0 0 0 .193-.184 73.856 73.856 0 0 0 5.507-5.866 16.591 16.591 0 0 0 .247-.32q1.741-2.325 1.741-4.113a3.309 3.309 0 0 0-.188-1.117 3.119 3.119 0 0 0-.38-.739q-.814-1.169-2.779-1.797a12.822 12.822 0 0 0-1.741-.414q-3.9-.6-7.9-.8-4-.2-7.9-.3-1.006-.043-2.06.018a24.157 24.157 0 0 0-2.79.332q-2.55.45-4.15 1.45a4.232 4.232 0 0 0-.099.064q-1.28.85-1.097 2.119a2.684 2.684 0 0 0 .096.417 7.071 7.071 0 0 0 .209.808q.19.582.464 1.012a2.502 2.502 0 0 0 1.477 1.13 8.492 8.492 0 0 0 .287.073q1.013.239 2.117.239a10.941 10.941 0 0 0 1.146-.062q2.269-.137 3.876-.298a43.478 43.478 0 0 0 1.324-.152q1.9-.25 3.25-.3 1.35-.05 2.9.15 1.55.2 4.15 1-2.7 2.8-5.15 5.3t-4.95 5q-2.9 3.1-5.5 6.5t-4.3 7.5q-1.3 3.2-.6 6.45.7 3.25 3.2 5.25a21.745 21.745 0 0 0 1.013.791q1.104.808 2.17 1.356a10.871 10.871 0 0 0 2.367.903q2.65.65 6.45-1.75 2.9-1.8 4.5-2.95a52.507 52.507 0 0 0 .441-.32q.648-.476 1.217-.926a30.634 30.634 0 0 0 1.092-.904q1.15-1 2.45-2.35 1.3-1.35 3.4-3.55a15410.051 15410.051 0 0 0 1.129 1.783q1.177 1.858 2.071 3.267a18.443 18.443 0 0 0 .163.253q1.231 1.872 2.637 2.997.961.769 2.373 1.251a12.913 12.913 0 0 0 1.727.449 9.298 9.298 0 0 0 .037.006q1.872.288 2.813-.356Zm47.816 4.205a2.539 2.539 0 0 0 .334-.055q1.4-.2 2.05-1.5.554-1.108.49-2.799a10.538 10.538 0 0 0-.04-.601q-.6-6.3-1.75-12.35t-3.25-12.05a64.455 64.455 0 0 0-.038-.087A70.036 70.036 0 0 0 469 50.058q-.7-1.45-1.8-2.65a10.83 10.83 0 0 0-1.452-1.612A6.925 6.925 0 0 0 461 43.908a6.59 6.59 0 0 0-.415.013q-1.355.086-2.71.73A10.698 10.698 0 0 0 456 45.808q-1.5 1.2-2.7 2.7-1.2 1.5-2.3 3.2-1.3 2.1-2.25 4.3-.95 2.2-2.05 4.4a25.46 25.46 0 0 1-.154.304q-.275.531-.696 1.296-.344.625-.863 1.368a25.831 25.831 0 0 1-.687.932q-.6-2.85-.919-4.687a49.68 49.68 0 0 1-.181-1.113q-.3-2.7-.5-5.5t-.7-5.5a4.492 4.492 0 0 0-.001-.006 3.518 3.518 0 0 0-1.349-2.394q-1.15-.9-2.55-.9h-.4a1.684 1.684 0 0 0-.079.002q-.113.005-.212.027a.881.881 0 0 0-.209.071 3.744 3.744 0 0 0-.57.226 2.594 2.594 0 0 0-1.23 1.224q-.417.875-.417 1.993a6.414 6.414 0 0 0 .017.457q.6 4.6 1.1 9.1.5 4.5 1.2 9.1a54.815 54.815 0 0 0 .106.757 61.184 61.184 0 0 0 .394 2.343q.3 1.6.7 3.2a9.837 9.837 0 0 0 .203.586 8.357 8.357 0 0 0 1.247 2.214 3.388 3.388 0 0 0 .152.179q.592.651 1.504.966a5.372 5.372 0 0 0 1.194.255 6.085 6.085 0 0 0 .089.011q.463.051.892.025a4.03 4.03 0 0 0 1.819-.536q1.2-.7 1.9-2 1.2-1.8 2.2-3.75 1-1.95 1.9-3.95 1.3-2.7 2.3-5.55 1-2.85 2.4-5.45a24.825 24.825 0 0 1 .37-.634q.553-.914 1.124-1.668A13.409 13.409 0 0 1 459 52.008a4.316 4.316 0 0 1 .309-.281q1.245-1.025 2.491-.269a1.928 1.928 0 0 1 .34.268q.908.882 1.683 3.471a30.972 30.972 0 0 1 .477 1.811q1.2 4.6 2.35 9.2 1.15 4.6 2.25 9.3a71.725 71.725 0 0 0 .197.952 83.953 83.953 0 0 0 .503 2.198q.2.825.488 1.513a6.948 6.948 0 0 0 .662 1.237 2.546 2.546 0 0 0 .192.249q.609.692 1.524.606Zm46.434 1.645q-1.6-.4-2.1-1.5-.417-.916-.417-2.111a7.351 7.351 0 0 1 .017-.489q.4-3.4.8-6.7.4-3.3.6-6.7.6-10.7 1.2-21.45t1.2-21.45a12.804 12.804 0 0 1-.466-1.503q-.459-1.911-.089-3.428a5.285 5.285 0 0 1 .155-.519 10.062 10.062 0 0 1 2.423-3.779 11.776 11.776 0 0 1 .227-.221q1.85-1.75 3.95-3.25 6.8-5 14.5-7.4a44.411 44.411 0 0 1 13.293-1.986 49.502 49.502 0 0 1 2.907.086q6 .3 8.5 3.85a8.545 8.545 0 0 1 1.477 3.913q.298 2.359-.442 5.302a21.497 21.497 0 0 1-.035.135q-1.2 4.6-3.85 8.35-2.65 3.75-5.55 7.25-3.1 3.7-6.65 7-3.55 3.3-7.15 6.6a10.546 10.546 0 0 1-1.226.977q-1.719 1.158-3.274.973a4.719 4.719 0 0 1-1.561-.496q-1.245-.627-2.613-2.009a18.363 18.363 0 0 1-.426-.445 38.879 38.879 0 0 0 2.525-2.565 35.824 35.824 0 0 0 .075-.085q1.2-1.35 2.8-2.25a47.172 47.172 0 0 0 10.002-8.021 43.399 43.399 0 0 0 1.998-2.279q4.9-6 8-13.5a9.542 9.542 0 0 0 .419-1.14q.269-.917.269-1.726a4.025 4.025 0 0 0-.738-2.384 4.179 4.179 0 0 0-2.316-1.605q-1.098-.322-2.556-.249a11.415 11.415 0 0 0-.078.004q-14.4.5-25.8 9.3a10.359 10.359 0 0 0-2.004 2.071 9.171 9.171 0 0 0-.846 1.429q-.891 1.876.021 4.542a11.487 11.487 0 0 0 .129.358q.554 1.662.554 3.579a13.499 13.499 0 0 1-.004.321q-.05 2.1-.25 4.1-.8 11.7-1.7 23.4-.9 11.7-1.7 23.4v.5a1.494 1.494 0 0 1-.014.211q-.023.164-.086.289-.296 1.407-.976 2.266a3.475 3.475 0 0 1-.524.534 2.637 2.637 0 0 1-1.715.623q-.284 0-.586-.055a3.903 3.903 0 0 1-.299-.068Zm93.05-5.85a1.999 1.999 0 0 0 .267-.22q.742-.724 1.083-2.43-1.3-1.3-2.6-2.3a12.905 12.905 0 0 1-.512-.414 11.139 11.139 0 0 1-1.688-1.786 16.563 16.563 0 0 1-.528-.657 14.075 14.075 0 0 1-2.472-4.993q-.8-3.05-1.1-6.25-.2-3.8-.15-6.4.034-1.765-.278-2.932a4.484 4.484 0 0 0-.372-.968 1.768 1.768 0 0 0-.248-.351q-.848-.934-3.152-.849-2.681.082-3.184 3.662a13.293 13.293 0 0 0-.116 1.838 22.574 22.574 0 0 1-.248 2.951 17.692 17.692 0 0 1-1.852 5.699q-2 3.75-5.2 6.7t-7 5.45a5.996 5.996 0 0 1-.364.219q-1.206.668-2.241.444a2.689 2.689 0 0 1-.945-.413 3.176 3.176 0 0 1-.891-.907q-.659-1.013-.659-2.643 0-.8.2-1.75a5.063 5.063 0 0 1 .136-.514 4.117 4.117 0 0 1 .564-1.136q2.2-2.8 4.45-5.7 2.25-2.9 4.65-5.6 2.7-3.1 5.8-6.05a80.556 80.556 0 0 0 .193-.184A73.856 73.856 0 0 0 599 43.708a16.591 16.591 0 0 0 .247-.32q1.741-2.325 1.741-4.113a3.309 3.309 0 0 0-.188-1.117 3.119 3.119 0 0 0-.38-.739q-.814-1.169-2.779-1.797a12.822 12.822 0 0 0-1.741-.414q-3.9-.6-7.9-.8-4-.2-7.9-.3-1.006-.043-2.06.018a24.157 24.157 0 0 0-2.79.332q-2.55.45-4.15 1.45a4.232 4.232 0 0 0-.099.064q-1.28.85-1.097 2.119a2.684 2.684 0 0 0 .096.417 7.071 7.071 0 0 0 .209.808q.19.582.464 1.012a2.502 2.502 0 0 0 1.477 1.13 8.492 8.492 0 0 0 .287.073q1.013.239 2.117.239a10.941 10.941 0 0 0 1.146-.062q2.269-.137 3.876-.298a43.478 43.478 0 0 0 1.324-.152q1.9-.25 3.25-.3 1.35-.05 2.9.15 1.55.2 4.15 1-2.7 2.8-5.15 5.3t-4.95 5q-2.9 3.1-5.5 6.5t-4.3 7.5q-1.3 3.2-.6 6.45.7 3.25 3.2 5.25a21.745 21.745 0 0 0 1.013.791q1.104.808 2.17 1.356a10.871 10.871 0 0 0 2.367.903q2.65.65 6.45-1.75 2.9-1.8 4.5-2.95a52.507 52.507 0 0 0 .441-.32q.648-.476 1.217-.926a30.634 30.634 0 0 0 1.092-.904q1.15-1 2.45-2.35 1.3-1.35 3.4-3.55a15410.051 15410.051 0 0 0 1.129 1.783q1.177 1.858 2.071 3.267a18.443 18.443 0 0 0 .163.253q1.231 1.872 2.637 2.997.961.769 2.373 1.251a12.913 12.913 0 0 0 1.727.449 9.298 9.298 0 0 0 .037.006q1.872.288 2.813-.356Zm47.816 4.205a2.539 2.539 0 0 0 .334-.055q1.4-.2 2.05-1.5.554-1.108.49-2.799a10.538 10.538 0 0 0-.04-.601q-.6-6.3-1.75-12.35t-3.25-12.05a64.455 64.455 0 0 0-.038-.087 70.036 70.036 0 0 0-1.262-2.763q-.7-1.45-1.8-2.65a10.83 10.83 0 0 0-1.452-1.612 6.925 6.925 0 0 0-4.748-1.888 6.59 6.59 0 0 0-.415.013q-1.355.086-2.71.73a10.698 10.698 0 0 0-1.875 1.157q-1.5 1.2-2.7 2.7-1.2 1.5-2.3 3.2-1.3 2.1-2.25 4.3-.95 2.2-2.05 4.4a25.46 25.46 0 0 1-.154.304q-.275.531-.696 1.296-.344.625-.863 1.368a25.831 25.831 0 0 1-.687.932q-.6-2.85-.919-4.687a49.68 49.68 0 0 1-.181-1.113q-.3-2.7-.5-5.5t-.7-5.5a4.492 4.492 0 0 0-.001-.006 3.518 3.518 0 0 0-1.349-2.394q-1.15-.9-2.55-.9h-.4a1.684 1.684 0 0 0-.079.002q-.113.005-.212.027a.881.881 0 0 0-.209.071 3.744 3.744 0 0 0-.57.226 2.594 2.594 0 0 0-1.23 1.224q-.417.875-.417 1.993a6.414 6.414 0 0 0 .017.457q.6 4.6 1.1 9.1.5 4.5 1.2 9.1a54.815 54.815 0 0 0 .106.757 61.184 61.184 0 0 0 .394 2.343q.3 1.6.7 3.2a9.837 9.837 0 0 0 .203.586 8.357 8.357 0 0 0 1.247 2.214 3.388 3.388 0 0 0 .152.179q.592.651 1.504.966a5.372 5.372 0 0 0 1.194.255 6.085 6.085 0 0 0 .089.011q.463.051.892.025a4.03 4.03 0 0 0 1.819-.536q1.2-.7 1.9-2 1.2-1.8 2.2-3.75 1-1.95 1.9-3.95 1.3-2.7 2.3-5.55 1-2.85 2.4-5.45a24.825 24.825 0 0 1 .37-.634q.553-.914 1.124-1.668a13.409 13.409 0 0 1 1.206-1.398 4.316 4.316 0 0 1 .309-.281q1.245-1.025 2.491-.269a1.928 1.928 0 0 1 .34.268q.908.882 1.683 3.471a30.972 30.972 0 0 1 .477 1.811q1.2 4.6 2.35 9.2 1.15 4.6 2.25 9.3a71.725 71.725 0 0 0 .197.952 83.953 83.953 0 0 0 .503 2.198q.2.825.488 1.513a6.948 6.948 0 0 0 .662 1.237 2.546 2.546 0 0 0 .192.249q.609.692 1.524.606ZM674.2 53.208l.7-7.4q.184-1.747 1.171-2.733a3.538 3.538 0 0 1 .179-.167 3.405 3.405 0 0 1 1.104-.656q.502-.177 1.056-.177a3.708 3.708 0 0 1 .49.033 3.014 3.014 0 0 1 1.697.698 4.393 4.393 0 0 1 .603.602q1 1.2 1.1 3 0 .678-.188 1.497a9.42 9.42 0 0 1-.012.053q-.2.85-.2 1.75v12.2q0 6.1.1 12.2 0 1.8-.55 2.9-.429.859-.828 1.23a1.344 1.344 0 0 1-.222.17 1.92 1.92 0 0 1-.354.164q-.839.282-1.575-.489a3.404 3.404 0 0 1-.271-.325 8.469 8.469 0 0 1-.837-1.414q-.33-.695-.594-1.521a15.63 15.63 0 0 1-.169-.565 45.308 45.308 0 0 1-.336-1.27q-.326-1.317-.464-2.28-.5-4.4-.85-8.75t-.75-8.75Zm10.045-15.423a1.906 1.906 0 0 0 .655.123 1.569 1.569 0 0 0 .907-.277 2.015 2.015 0 0 0 .443-.423 2.495 2.495 0 0 0 .468-1.009 3.6 3.6 0 0 0 .082-.791 4.529 4.529 0 0 0-.352-1.804 4.434 4.434 0 0 0-1.248-1.646 41.542 41.542 0 0 1-1.073-.939q-.566-.512-1.192-1.11a90.744 90.744 0 0 1-1.535-1.501q-.554-.705-1.134-1.055a2.231 2.231 0 0 0-1.166-.345 2.259 2.259 0 0 0-.485.054q-.904.198-1.878 1.128a9.753 9.753 0 0 0-.837.918 18.044 18.044 0 0 0 .889 1.579 14.666 14.666 0 0 0 2.561 3.071q2.05 1.85 4.05 3.55a4.159 4.159 0 0 0 .324.221q.266.163.521.256Zm32.955 76.023q-3.4 0-6.05-1.95a19.415 19.415 0 0 1-4.009-4.002 22.439 22.439 0 0 1-.641-.898 59.552 59.552 0 0 1-2.719-4.397 52.257 52.257 0 0 1-.781-1.453q-.6-1.1-.4-2.3a1.745 1.745 0 0 1 .208-.602q.368-.627 1.292-.698a2.206 2.206 0 0 1 1.021.267q.662.343 1.339 1.127a8.003 8.003 0 0 1 .09.106q1.25 1.5 3.3 3.8t5.75 4.8a3.326 3.326 0 0 0 2.613-1.211 4.977 4.977 0 0 0 .437-.589q1.15-1.8 1.55-4a167.48 167.48 0 0 0 .612-3.213q.285-1.589.502-3.003a88.14 88.14 0 0 0 .236-1.634q.368-2.741.368-5.247a33.093 33.093 0 0 0-.018-1.103 40.136 40.136 0 0 0-.493-5.007 45.497 45.497 0 0 0-.207-1.193q-.9-4.7-1.35-9.5-.45-4.8-1.05-9.5-.1-.7-.35-1.4-.191-.536-.529-1.423a182.498 182.498 0 0 0-.221-.577q-1.839 2.323-3.397 4.131a91.16 91.16 0 0 1-.103.119q-1.6 1.85-3.1 3.85a14.553 14.553 0 0 1-1.405 1.644q-1.368 1.366-2.845 1.956-2.25.9-4.95.5-4-.9-5.8-4.4-1.8-3.5-1.8-7.5 0-2.5.6-4.95t1.5-4.85q1.4-3.9 3.8-7.05t5.5-5.85q2.1-2 4.75-2.8a9.877 9.877 0 0 1 2.869-.426q1.235 0 2.499.306a11.691 11.691 0 0 1 .082.02 20.032 20.032 0 0 1 4.484 1.719 17.363 17.363 0 0 1 2.316 1.481 9.318 9.318 0 0 1 3.548 5.735 11.979 11.979 0 0 1 .052.265 9.47 9.47 0 0 1 .158.701q.248 1.357-.09 2.157a1.971 1.971 0 0 1-.018.042 2.342 2.342 0 0 1-.988 1.073 3.606 3.606 0 0 1-.762.327 3.257 3.257 0 0 0-.522.207q-.256.131-.427.293a1.063 1.063 0 0 0-.351.8 19.427 19.427 0 0 0 .014.718q.024.632.086 1.382.4 2.6 1.3 7.2t1.85 10.15q.95 5.55 1.6 11.3a90.922 90.922 0 0 1 .47 5.693q.093 1.87.093 3.636a64.786 64.786 0 0 1-.013 1.321q-.1 3.4-.6 6.7l-1 6.6a9.599 9.599 0 0 1-.584 2.19q-.376.963-.966 1.969a17.403 17.403 0 0 1-.3.491q-1.55 2.45-3.7 4.2-1.96 1.596-3.961 1.737a5.527 5.527 0 0 1-.389.013Zm-13.7-48a26.69 26.69 0 0 0 5.541-4.115 23.737 23.737 0 0 0 2.059-2.285 21.123 21.123 0 0 0 3.837-7.8 24.871 24.871 0 0 0 .263-1.1q.6-2.6.8-5.25.2-2.65.5-5.25a4.666 4.666 0 0 0-.661-.556q-1.08-.738-2.189-.394a7.496 7.496 0 0 0-2.049 1.012 9.132 9.132 0 0 0-.701.538q-4.2 3.9-6.95 8.65t-2.75 10.95q0 1.4.45 2.8.386 1.203 1.474 2.405a10.862 10.862 0 0 0 .376.395Zm34.2 1v-3.8q0-1.163.04-1.925a17.448 17.448 0 0 1 .01-.175q.034-.55.092-1.265a117.974 117.974 0 0 1 .058-.685q.077-.88.095-2.435a88.19 88.19 0 0 0 .005-1.015 143.85 143.85 0 0 0-.006-1.275q-.013-1.443-.053-3.419a584.285 584.285 0 0 0-.041-1.906v-3a41.233 41.233 0 0 1 .077-2.548 37.329 37.329 0 0 1 .023-.352 22.326 22.326 0 0 0-.054-1.522 25.913 25.913 0 0 0-.046-.578 4.35 4.35 0 0 1-.018-.335q-.012-.882.368-1.515a1.233 1.233 0 0 1 .52-.46q.574-.29 1.63-.29a4.161 4.161 0 0 1 1.755.362q.86.394 1.504 1.219a5.15 5.15 0 0 1 .091.119q1.25 1.7 1.25 4.5v2.15q0 1.75.05 3.5.041 1.422.246 1.953a.831.831 0 0 0 .104.197.915.915 0 0 1-.05-.182q-.094-.54.2-1.718.35-1.4.85-2.7a140.554 140.554 0 0 1 .173-.448q.299-.77.4-.995a1.561 1.561 0 0 1 .027-.057 32.517 32.517 0 0 1 4.113-6.633 27.019 27.019 0 0 1 4.637-4.517 37.857 37.857 0 0 1 10.586-5.619 43.817 43.817 0 0 1 1.964-.631 9.066 9.066 0 0 1 .723-.18q1.803-.369 2.729.343a1.96 1.96 0 0 1 .048.037 2.767 2.767 0 0 1 .858 1.267q.163.468.216 1.044a6.408 6.408 0 0 1 .026.589q0 1.594-2.382 2.593a9.183 9.183 0 0 1-.018.007q-3.4 1.4-6.6 3.2-3.2 1.8-6.1 4a11.869 11.869 0 0 0-2.037 2.182 14.838 14.838 0 0 0-.913 1.418 45.188 45.188 0 0 0-1.553 2.978 38.774 38.774 0 0 0-.597 1.322q-2.1 5.2-3.8 10.5-1.7 5.3-2.2 11 0 2.1-.95 4.05-.904 1.855-2.214 1.855a1.902 1.902 0 0 1-.136-.005 7.428 7.428 0 0 1-1.517-.145q-.936-.195-1.648-.653a4.101 4.101 0 0 1-.685-.552 5.604 5.604 0 0 1-1.398-2.379 7.524 7.524 0 0 1-.252-1.171q-.1-1.4-.15-2.7-.05-1.3-.05-2.6Zm84.25 11.25a1.999 1.999 0 0 0 .267-.22q.742-.724 1.083-2.43-1.3-1.3-2.6-2.3a12.905 12.905 0 0 1-.512-.414 11.139 11.139 0 0 1-1.688-1.786 16.563 16.563 0 0 1-.528-.657 14.075 14.075 0 0 1-2.472-4.993q-.8-3.05-1.1-6.25-.2-3.8-.15-6.4.034-1.765-.278-2.932a4.484 4.484 0 0 0-.372-.968 1.768 1.768 0 0 0-.248-.351q-.848-.934-3.152-.849-2.681.082-3.184 3.662a13.293 13.293 0 0 0-.116 1.838 22.574 22.574 0 0 1-.248 2.951 17.692 17.692 0 0 1-1.852 5.699q-2 3.75-5.2 6.7t-7 5.45a5.996 5.996 0 0 1-.364.219q-1.206.668-2.241.444a2.689 2.689 0 0 1-.945-.413 3.176 3.176 0 0 1-.891-.907q-.659-1.013-.659-2.643 0-.8.2-1.75a5.063 5.063 0 0 1 .136-.514 4.117 4.117 0 0 1 .564-1.136q2.2-2.8 4.45-5.7 2.25-2.9 4.65-5.6 2.7-3.1 5.8-6.05a80.556 80.556 0 0 0 .193-.184A73.856 73.856 0 0 0 809 43.708a16.591 16.591 0 0 0 .247-.32q1.741-2.325 1.741-4.113a3.309 3.309 0 0 0-.188-1.117 3.119 3.119 0 0 0-.38-.739q-.814-1.169-2.779-1.797a12.822 12.822 0 0 0-1.741-.414q-3.9-.6-7.9-.8-4-.2-7.9-.3-1.006-.043-2.06.018a24.157 24.157 0 0 0-2.79.332q-2.55.45-4.15 1.45a4.232 4.232 0 0 0-.099.064q-1.28.85-1.097 2.119a2.684 2.684 0 0 0 .096.417 7.071 7.071 0 0 0 .209.808q.19.582.464 1.012a2.502 2.502 0 0 0 1.477 1.13 8.492 8.492 0 0 0 .287.073q1.013.239 2.117.239a10.941 10.941 0 0 0 1.146-.062q2.269-.137 3.876-.298a43.478 43.478 0 0 0 1.324-.152q1.9-.25 3.25-.3 1.35-.05 2.9.15 1.55.2 4.15 1-2.7 2.8-5.15 5.3t-4.95 5q-2.9 3.1-5.5 6.5t-4.3 7.5q-1.3 3.2-.6 6.45.7 3.25 3.2 5.25a21.745 21.745 0 0 0 1.013.791q1.104.808 2.17 1.356a10.871 10.871 0 0 0 2.367.903q2.65.65 6.45-1.75 2.9-1.8 4.5-2.95a52.507 52.507 0 0 0 .441-.32q.648-.476 1.217-.926a30.634 30.634 0 0 0 1.092-.904q1.15-1 2.45-2.35 1.3-1.35 3.4-3.55a15410.051 15410.051 0 0 0 1.129 1.783q1.177 1.858 2.071 3.267a18.443 18.443 0 0 0 .163.253q1.231 1.872 2.637 2.997.961.769 2.373 1.251a12.913 12.913 0 0 0 1.727.449 9.298 9.298 0 0 0 .037.006q1.872.288 2.813-.356Zm18.45-46.85v12.2q0 4.3.3 8.65a184.049 184.049 0 0 1 .335 6.705 212.416 212.416 0 0 1 .065 2.445q2.419-2.063 3.851-4a13.587 13.587 0 0 0 .999-1.55q1.45-2.65 2.85-5.45 2.22-3.828 3.62-6.425a98.915 98.915 0 0 0 .78-1.475 7.126 7.126 0 0 1 .924-1.393 4.047 4.047 0 0 1 3.176-1.507 5.102 5.102 0 0 1 3.472 1.371q.681.604 1.289 1.473a10.687 10.687 0 0 1 .039.056q1.6 3.1 2.7 6.5 1.8 6.4 3.55 13 1.75 6.6 3.65 13.7-2.1 1.4-3.95.05a8.087 8.087 0 0 1-1.352-1.272q-.583-.679-1.139-1.561a20.082 20.082 0 0 1-.959-1.717 47.661 47.661 0 0 1-1.629-3.654 63.171 63.171 0 0 1-1.321-3.646q-1.35-4.1-2.45-8.25a1517.854 1517.854 0 0 1-.783-2.965q-.617-2.347-1.117-4.285a355.067 355.067 0 0 0-3.136 5.398q-1.207 2.123-2.248 4.036A172.858 172.858 0 0 0 850 61.258q-2.8 5.45-6 8.55-1.804 1.64-3.204 1.935a2.885 2.885 0 0 1-.596.065 3.345 3.345 0 0 1-2.257-.883q-.463-.404-.876-.994a7.318 7.318 0 0 1-.117-.173 14.049 14.049 0 0 1-1.525-3.126 17.166 17.166 0 0 1-.475-1.624q-.65-2.7-.75-4.7-.4-7.8-.55-15.7-.15-7.9-.35-15.8a27.87 27.87 0 0 0-.236-3.555 33.045 33.045 0 0 0-.264-1.695 31.018 31.018 0 0 1-.311-2.092q-.144-1.284-.144-2.412a17.029 17.029 0 0 1 .005-.396q.05-2.15 1.65-2.95a4.412 4.412 0 0 1 .533-.243q.493-.183.925-.183a1.776 1.776 0 0 1 1.042.326 6.224 6.224 0 0 1 1.589 1.631 7.155 7.155 0 0 1 .111.169q1.186 2.007 1.664 3.806a10.68 10.68 0 0 1 .086.344 17.651 17.651 0 0 1 .406 2.823 21.159 21.159 0 0 1 .044 1.377v5.45Zm43.1 22 .7-7.4q.184-1.747 1.171-2.733a3.538 3.538 0 0 1 .179-.167 3.405 3.405 0 0 1 1.104-.656q.502-.177 1.056-.177a3.708 3.708 0 0 1 .49.033 3.014 3.014 0 0 1 1.697.698 4.393 4.393 0 0 1 .603.602q1 1.2 1.1 3 0 .678-.188 1.497a9.42 9.42 0 0 1-.012.053q-.2.85-.2 1.75v12.2q0 6.1.1 12.2 0 1.8-.55 2.9-.429.859-.828 1.23a1.344 1.344 0 0 1-.222.17 1.92 1.92 0 0 1-.354.164q-.839.282-1.575-.489a3.404 3.404 0 0 1-.271-.325 8.469 8.469 0 0 1-.837-1.414q-.33-.695-.594-1.521a15.63 15.63 0 0 1-.169-.565 45.308 45.308 0 0 1-.336-1.27q-.326-1.317-.464-2.28-.5-4.4-.85-8.75t-.75-8.75Zm10.045-15.423a1.906 1.906 0 0 0 .655.123 1.569 1.569 0 0 0 .907-.277 2.015 2.015 0 0 0 .443-.423 2.495 2.495 0 0 0 .468-1.009 3.6 3.6 0 0 0 .082-.791 4.529 4.529 0 0 0-.352-1.804 4.434 4.434 0 0 0-1.248-1.646 41.542 41.542 0 0 1-1.073-.939q-.566-.512-1.192-1.11a90.744 90.744 0 0 1-1.535-1.501q-.554-.705-1.134-1.055a2.231 2.231 0 0 0-1.166-.345 2.259 2.259 0 0 0-.485.054q-.904.198-1.878 1.128a9.753 9.753 0 0 0-.837.918 18.044 18.044 0 0 0 .889 1.579 14.666 14.666 0 0 0 2.561 3.071q2.05 1.85 4.05 3.55a4.159 4.159 0 0 0 .324.221q.266.163.521.256Z" font-size="12" vector-effect="non-scaling-stroke"/>
</svg>
